<?xml version="1.0" encoding="UTF-8" ?>
<!DOCTYPE svg PUBLIC "-//W3C//DTD SVG 1.1//EN" "http://www.w3.org/Graphics/SVG/1.1/DTD/svg11.dtd">
<svg width="261pt" height="309pt" viewBox="0 0 261 309" version="1.1" xmlns="http://www.w3.org/2000/svg">
<g id="#94a1c3ff">
<path fill="#94a1c3" opacity="1.00" d=" M 96.82 7.75 C 108.32 4.75 120.30 3.93 132.14 4.37 C 128.75 5.20 125.31 5.78 121.89 6.45 C 100.66 10.98 81.25 22.94 66.95 39.17 C 63.05 38.01 58.94 37.38 55.34 35.43 C 53.56 34.45 53.10 32.27 52.11 30.65 C 65.08 19.86 80.40 11.80 96.82 7.75 Z" />
<path fill="#94a1c3" opacity="1.00" d=" M 126.98 9.99 C 145.16 3.64 165.25 2.44 183.93 7.36 C 214.16 14.75 239.94 37.93 250.70 67.11 C 256.15 81.71 258.16 97.64 256.13 113.10 C 255.95 110.86 255.66 108.63 255.31 106.41 C 252.47 103.87 249.17 101.91 245.88 100.04 C 238.54 97.41 231.30 94.48 223.94 91.89 C 221.89 85.35 219.48 78.90 216.49 72.73 C 216.99 67.09 218.52 61.58 218.72 55.92 C 218.99 54.08 217.83 52.39 216.15 51.72 C 210.73 51.13 205.03 52.26 199.78 50.50 C 192.01 44.24 183.91 38.15 174.56 34.45 C 168.07 31.54 161.06 30.22 154.19 28.60 C 152.70 26.94 151.30 24.79 148.80 24.81 C 146.31 25.14 144.20 26.61 141.89 27.48 C 138.72 28.61 135.29 28.50 132.01 29.09 C 118.85 31.16 106.16 36.42 95.56 44.50 C 90.65 48.83 83.83 49.43 77.68 50.68 C 88.60 31.83 106.71 17.62 126.98 9.99 Z" />
</g>
<g id="#a680b5ff">
<path fill="#a680b5" opacity="1.00" d=" M 121.06 40.21 C 128.25 37.36 134.94 33.44 141.89 30.08 C 131.42 37.54 120.90 44.95 110.58 52.61 C 94.98 64.15 78.89 74.99 63.00 86.10 C 60.29 87.97 57.71 90.04 54.82 91.62 C 52.25 92.06 49.63 91.77 47.05 91.76 C 49.27 79.74 51.06 67.62 53.63 55.67 C 59.76 55.58 65.91 55.95 72.02 55.48 C 78.04 54.16 83.99 52.49 89.95 50.92 C 100.51 47.92 110.92 44.40 121.06 40.21 Z" />
<path fill="#a680b5" opacity="1.00" d=" M 16.25 80.31 C 23.85 61.17 36.09 43.68 52.11 30.65 C 53.10 32.27 53.56 34.45 55.34 35.43 C 58.94 37.38 63.05 38.01 66.95 39.17 C 63.60 42.95 60.80 47.16 57.63 51.06 C 55.23 51.70 52.02 50.96 50.60 53.57 C 48.60 60.87 48.29 68.57 45.72 75.73 C 43.78 81.08 42.32 86.58 41.06 92.13 C 41.12 91.57 41.24 90.46 41.29 89.90 C 40.64 90.88 39.98 91.87 39.32 92.85 C 33.19 90.12 26.73 88.20 20.60 85.46 C 18.27 84.65 17.09 82.46 16.25 80.31 Z" />
<path fill="#a680b5" opacity="1.00" d=" M 120.74 58.92 C 122.92 57.43 125.12 55.40 127.97 55.71 C 155.65 55.68 183.34 55.69 211.02 55.68 C 209.49 66.13 207.15 76.45 205.52 86.89 C 205.38 89.33 203.39 91.52 200.90 91.61 C 185.57 91.98 170.18 91.17 154.89 92.35 C 154.76 93.83 154.64 95.32 154.52 96.81 C 152.57 96.82 150.63 96.84 148.69 96.84 C 147.17 104.54 145.79 112.27 144.48 120.01 C 145.02 120.36 146.10 121.07 146.64 121.42 C 147.77 121.36 148.90 121.30 150.04 121.24 C 157.94 119.53 165.33 116.22 172.70 113.00 C 143.69 131.97 115.63 152.34 87.13 172.05 C 91.84 145.43 97.14 118.93 101.76 92.30 C 96.84 91.85 91.91 91.96 86.99 91.66 C 80.59 91.37 75.12 95.07 69.52 97.58 C 63.98 100.60 58.00 103.00 53.17 107.14 C 51.21 109.02 48.46 109.58 46.04 110.64 C 47.38 109.99 48.73 109.36 50.08 108.73 L 49.59 107.80 C 52.97 106.35 56.23 104.60 59.08 102.24 C 79.52 87.65 100.20 73.38 120.74 58.92 Z" />
<path fill="#a680b5" opacity="1.00" d=" M 223.94 91.89 C 231.30 94.48 238.54 97.41 245.88 100.04 C 249.17 101.91 252.47 103.87 255.31 106.41 C 255.66 108.63 255.95 110.86 256.13 113.10 C 254.05 132.59 245.35 151.16 232.35 165.76 C 226.86 163.65 221.20 161.88 216.21 158.69 C 227.21 138.45 229.62 114.12 223.94 91.89 Z" />
<path fill="#a680b5" opacity="1.00" d=" M 72.39 195.32 C 94.77 180.15 116.80 164.48 138.97 149.01 C 136.41 163.69 133.76 178.37 130.95 193.01 C 129.60 201.49 127.96 209.93 126.28 218.35 C 111.54 218.27 96.79 218.41 82.06 218.29 C 80.87 218.43 80.08 217.45 79.41 216.64 C 79.44 211.50 81.24 206.56 81.58 201.43 C 75.40 200.74 69.44 202.92 63.66 204.82 C 59.53 206.47 55.16 207.64 51.39 210.07 C 51.42 209.90 51.46 209.54 51.49 209.37 C 58.71 205.08 65.44 200.02 72.39 195.32 Z" />
</g>
<g id="#b03094ff">
<path fill="#b03094" opacity="1.00" d=" M 8.00 126.01 C 7.34 110.41 10.65 94.82 16.25 80.31 C 17.09 82.46 18.27 84.65 20.60 85.46 C 26.73 88.20 33.19 90.12 39.32 92.85 C 39.98 91.87 40.64 90.88 41.29 89.90 C 41.24 90.46 41.12 91.57 41.06 92.13 C 40.10 99.72 39.05 107.34 39.26 115.02 C 39.97 141.21 49.42 167.47 67.17 186.95 C 68.18 188.34 69.95 189.59 69.69 191.51 C 62.11 197.90 53.18 202.49 45.60 208.90 C 45.23 211.71 45.72 214.37 47.84 216.36 C 56.99 216.43 64.34 209.02 73.55 209.34 C 73.77 208.87 74.22 207.92 74.44 207.44 C 74.45 212.02 73.93 216.58 73.87 221.17 C 74.67 221.98 75.48 222.79 76.28 223.60 C 94.52 223.38 112.77 223.58 131.00 223.54 C 139.22 220.77 148.02 222.83 156.43 221.21 C 185.69 217.67 212.46 200.28 228.93 176.04 C 230.59 173.39 232.15 170.65 234.21 168.28 C 220.84 208.22 184.89 240.33 142.97 246.84 C 135.11 248.65 127.02 247.77 119.04 248.02 C 111.86 248.36 104.82 246.64 97.84 245.22 C 57.04 235.50 23.72 201.65 12.71 161.46 C 12.16 159.80 11.77 158.10 11.33 156.42 C 8.68 146.53 7.60 136.25 8.00 126.01 Z" />
<path fill="#b03094" opacity="1.00" d=" M 216.14 158.65 L 216.21 158.69 C 221.20 161.88 226.86 163.65 232.35 165.76 C 217.54 182.52 196.67 193.74 174.56 196.99 C 192.28 189.47 207.10 175.62 216.14 158.65 Z" />
<path fill="#b03094" opacity="1.00" d=" M 27.56 263.49 C 33.89 263.50 40.22 263.46 46.55 263.51 C 46.28 266.86 45.86 270.20 45.48 273.55 C 43.45 273.53 41.43 273.52 39.40 273.51 C 38.10 283.78 37.61 294.12 36.48 304.40 C 34.48 304.39 32.48 304.39 30.47 304.40 C 31.06 294.09 32.46 283.84 32.81 273.52 C 30.73 273.51 28.66 273.50 26.58 273.49 C 27.30 270.20 27.46 266.84 27.56 263.49 Z" />
<path fill="#b03094" opacity="1.00" d=" M 54.63 263.51 C 60.28 263.48 65.94 263.47 71.59 263.51 C 71.14 266.43 70.70 269.36 70.44 272.30 C 67.08 272.30 63.71 272.30 60.35 272.31 C 60.26 274.40 60.19 276.50 60.11 278.61 C 63.25 278.61 66.38 278.62 69.52 278.65 C 69.18 281.49 68.75 284.32 68.41 287.16 C 65.18 287.15 61.95 287.15 58.72 287.24 C 58.60 289.75 58.48 292.27 58.36 294.78 C 61.82 294.78 65.27 294.79 68.72 294.78 C 68.66 297.98 68.49 301.18 68.29 304.38 C 62.62 304.41 56.95 304.35 51.29 304.41 C 52.03 293.88 53.23 283.39 53.76 272.85 L 54.26 272.31 C 54.36 269.38 54.51 266.44 54.63 263.51 Z" />
<path fill="#b03094" opacity="1.00" d=" M 80.59 263.51 C 82.64 263.50 84.68 263.48 86.73 263.48 C 86.51 268.22 86.23 272.96 85.48 277.66 C 87.76 277.69 90.04 277.69 92.32 277.68 C 92.45 272.91 93.07 268.20 93.65 263.48 C 95.67 263.49 97.69 263.49 99.72 263.49 C 98.89 277.15 97.35 290.74 96.37 304.39 C 94.19 304.38 92.01 304.37 89.83 304.36 C 90.77 298.79 90.63 293.13 90.94 287.51 C 88.92 287.91 86.32 286.84 84.66 288.35 C 84.30 293.70 83.73 299.04 83.26 304.39 C 81.28 304.39 79.29 304.39 77.31 304.40 C 78.02 290.74 79.72 277.16 80.59 263.51 Z" />
<path fill="#b03094" opacity="1.00" d=" M 109.51 263.49 C 114.59 263.49 119.68 263.49 124.76 263.47 C 124.57 266.42 124.43 269.37 124.28 272.32 C 121.24 272.32 118.20 272.31 115.16 272.35 C 114.96 274.69 114.63 277.01 114.36 279.34 C 117.04 279.36 119.73 279.35 122.41 279.37 C 121.93 282.05 121.58 284.76 121.35 287.48 C 118.78 287.48 116.21 287.49 113.65 287.52 C 113.42 293.15 112.55 298.72 112.17 304.35 C 110.16 304.37 108.16 304.39 106.15 304.41 C 106.95 290.75 108.40 277.13 109.51 263.49 Z" />
<path fill="#b03094" opacity="1.00" d=" M 136.61 263.46 C 138.84 263.48 141.08 263.49 143.31 263.50 C 144.99 276.90 145.68 290.42 147.44 303.81 C 145.18 303.81 142.93 303.81 140.67 303.79 C 140.61 301.69 140.55 299.60 140.49 297.50 C 138.16 297.48 135.83 297.48 133.50 297.50 C 133.08 299.60 132.59 301.69 132.11 303.78 C 129.90 303.80 127.70 303.82 125.49 303.87 C 129.32 290.43 133.02 276.97 136.61 263.46 M 139.01 275.76 C 137.46 279.87 136.56 284.17 135.89 288.51 C 137.17 288.50 138.45 288.50 139.74 288.50 C 139.58 284.25 139.39 280.00 139.01 275.76 Z" />
<path fill="#b03094" opacity="1.00" d=" M 173.52 263.49 C 178.38 264.05 185.05 261.55 188.21 266.59 C 191.88 274.01 190.40 282.68 189.34 290.55 C 188.35 295.93 186.12 302.49 180.29 304.23 C 176.80 304.63 173.27 304.33 169.77 304.36 C 171.38 290.77 172.26 277.11 173.52 263.49 M 178.75 272.31 C 178.53 275.59 178.35 278.88 178.13 282.16 C 177.55 286.32 177.37 290.53 177.21 294.73 C 178.46 294.68 179.71 294.62 180.97 294.56 C 181.64 292.72 182.51 290.97 183.40 289.23 C 183.46 284.30 184.32 279.29 183.35 274.40 C 182.46 272.69 180.33 272.80 178.75 272.31 Z" />
<path fill="#b03094" opacity="1.00" d=" M 199.91 263.56 C 205.83 263.45 211.74 263.50 217.66 263.48 C 217.38 266.97 217.85 270.76 215.88 273.87 C 211.81 281.06 207.85 288.33 203.63 295.44 C 207.61 295.47 211.59 295.47 215.58 295.51 C 215.25 298.48 214.77 301.43 214.42 304.40 C 208.14 304.39 201.85 304.37 195.57 304.42 C 195.75 300.97 195.56 297.30 197.23 294.15 C 201.09 286.77 205.44 279.66 209.45 272.36 C 206.14 272.29 202.84 272.28 199.53 272.31 C 199.66 269.39 199.80 266.47 199.91 263.56 Z" />
<path fill="#b03094" opacity="1.00" d=" M 154.85 285.85 C 155.30 285.55 156.18 284.96 156.63 284.66 C 158.79 284.94 161.29 284.21 163.21 285.47 C 163.20 288.16 162.72 290.83 162.47 293.51 C 159.80 293.51 157.12 293.51 154.45 293.52 C 154.58 290.96 154.72 288.40 154.85 285.85 Z" />
</g>
</svg>
